<svg width="63" height="60" viewBox="0 0 63 60" fill="none" xmlns="http://www.w3.org/2000/svg">
<g clip-path="url(#clip0_2_698)">
<path d="M0.452647 9.26198C0.452647 7.72556 0.452647 6.19035 0.452647 4.65635C0.452647 0.971124 3.06125 -0.844308 6.60909 0.380478C14.71 3.18516 22.8073 5.9983 30.9009 8.81989C39.0826 11.6656 47.263 14.515 55.4423 17.368C60.0284 18.9661 62.4498 22.3034 62.4682 27.083C62.4682 29.3876 62.4682 31.6922 62.4682 33.9968C62.4682 37.4429 59.9844 39.2149 56.6787 38.0843C47.8342 35.0598 38.997 32.0159 30.1671 28.9528C21.9341 26.1118 13.7035 23.2649 5.47538 20.4119C1.80648 19.1436 0.452644 17.3028 0.448975 13.4618L0.452647 9.26198Z" fill="#FE914D"/>
<path d="M0.456326 50.6003C0.456326 48.9769 0.434313 47.339 0.456326 45.7265C0.500353 43.1429 1.60469 41.1209 4.07754 40.1715C9.09293 38.2474 14.1707 36.4718 19.3292 34.9571C20.9766 34.5092 22.7251 34.5852 24.3262 35.1745C31.8206 37.7618 39.3125 40.3539 46.802 42.9508C47.4954 43.19 48.0751 43.5596 48.0457 44.364C48.0164 45.1685 47.411 45.3823 46.78 45.6033C33.2197 50.3068 19.6606 55.0103 6.10278 59.7137C3.1273 60.7428 0.526035 58.8875 0.456326 55.7459C0.423306 54.0319 0.456326 52.3143 0.456326 50.6003Z" fill="#FE914D"/>
</g>
<defs>
<clipPath id="clip0_2_698">
<rect width="62.0339" height="60" fill="white" transform="translate(0.44165)"/>
</clipPath>
</defs>
</svg>
