<svg width="36" height="26" viewBox="0 0 36 26" fill="none" xmlns="http://www.w3.org/2000/svg">
<path d="M3.08415 2.16667C3.08415 0.97005 4.0542 0 5.25081 0H31.2508C32.4474 0 33.4175 0.97005 33.4175 2.16667L3.08415 2.16667Z" fill="#FE914D"/>
<path d="M18.2508 19.5C20.6441 19.5 22.5842 17.5599 22.5842 15.1667C22.5842 12.7734 20.6441 10.8333 18.2508 10.8333C15.8576 10.8333 13.9175 12.7734 13.9175 15.1667C13.9175 17.5599 15.8576 19.5 18.2508 19.5Z" fill="#FE914D"/>
<path d="M0.91748 6.5C0.91748 5.30338 1.88753 4.33333 3.08415 4.33333H33.4175C34.6141 4.33333 35.5842 5.30338 35.5842 6.5V23.8333C35.5842 25.0299 34.6141 26 33.4175 26H3.08415C1.88753 26 0.91748 25.03 0.91748 23.8333V6.5ZM7.41748 6.5C7.41748 8.89323 5.47738 10.8333 3.08415 10.8333V19.5C5.47738 19.5 7.41748 21.4401 7.41748 23.8333H29.0842C29.0842 21.4401 31.0243 19.5 33.4175 19.5V10.8333C31.0243 10.8333 29.0842 8.89323 29.0842 6.5H7.41748Z" fill="#FE914D"/>
</svg>
